<?xml version="1.0" encoding="UTF-8" standalone="no"?>
<svg
   viewBox="0 0 1024 1024"
   version="1.1"
   id="svg13"
   sodipodi:docname="icon.svg"
   inkscape:version="1.4.2 (2aeb623e1d, 2025-05-12)"
   xmlns:inkscape="http://www.inkscape.org/namespaces/inkscape"
   xmlns:sodipodi="http://sodipodi.sourceforge.net/DTD/sodipodi-0.dtd"
   xmlns:xlink="http://www.w3.org/1999/xlink"
   xmlns="http://www.w3.org/2000/svg"
   xmlns:svg="http://www.w3.org/2000/svg">
  <sodipodi:namedview
     id="namedview13"
     pagecolor="#ffffff"
     bordercolor="#000000"
     borderopacity="0.25"
     inkscape:showpageshadow="2"
     inkscape:pageopacity="0.0"
     inkscape:pagecheckerboard="0"
     inkscape:deskcolor="#d1d1d1"
     inkscape:zoom="1.2236262"
     inkscape:cx="519.35796"
     inkscape:cy="520.1752"
     inkscape:window-width="3374"
     inkscape:window-height="1371"
     inkscape:window-x="66"
     inkscape:window-y="32"
     inkscape:window-maximized="1"
     inkscape:current-layer="svg13" />
  <defs
     id="defs2">
    <style
       id="style1">
      .cls-1 {
        fill: url(#linear-gradient-2);
      }

      .cls-2 {
        fill: #2e3b47;
      }

      .cls-3 {
        isolation: isolate;
      }

      .cls-4 {
        fill: url(#linear-gradient-4);
        mix-blend-mode: multiply;
        opacity: .6;
      }

      .cls-5 {
        fill: url(#linear-gradient-5);
      }

      .cls-6 {
        fill: url(#linear-gradient-3);
      }

      .cls-7 {
        fill: url(#linear-gradient);
      }
    </style>
    <linearGradient
       id="linear-gradient"
       x1="515.6"
       y1="168.02"
       x2="515.12"
       y2="173.08"
       gradientTransform="translate(-37.21 192.72) rotate(-4.94)"
       gradientUnits="userSpaceOnUse">
      <stop
         offset="0"
         stop-color="#00bfff"
         id="stop1" />
      <stop
         offset="1"
         stop-color="#00a4ff"
         id="stop2" />
    </linearGradient>
    <linearGradient
       id="linear-gradient-2"
       x1="455.85"
       y1="-68.37"
       x2="401.64"
       y2="506.96"
       xlink:href="#linear-gradient" />
    <linearGradient
       id="linear-gradient-3"
       x1="665.87"
       y1="-49.13"
       x2="611.87"
       y2="523.99"
       xlink:href="#linear-gradient" />
    <linearGradient
       id="linear-gradient-4"
       x1="665.87"
       y1="-49.13"
       x2="611.87"
       y2="523.99"
       xlink:href="#linear-gradient" />
    <linearGradient
       id="linear-gradient-5"
       x1="554.39"
       y1="-37.59"
       x2="495.33"
       y2="589.13"
       xlink:href="#linear-gradient" />
  </defs>
  <g
     id="g12"
     inkscape:label="icon">
    <g
       id="g3"
       inkscape:label="brackets">
      <path
         class="cls-2"
         d="m216.32,522.53l-5.59,5.43,5.54,5.59c17.28,17.38,26.02,42.32,26.02,74.09v128.77c0,5.23.52,10.24,1.45,14.9,1.81,8.64,5.28,16.3,10.4,22.61,1.6,2.02,3.42,3.98,5.43,5.79,3.98,3.62,8.64,6.62,13.76,9,7.3,3.36,15.83,5.38,25.4,6.1v44.03c-31.82-1.29-56.91-10.76-74.66-28.25-19.09-18.83-28.82-45.99-28.82-80.61v-125.77c0-17.12-5.43-30.73-16.19-40.41-9-8.07-21.06-12.78-35.9-13.97v-44.55c14.85-1.19,26.9-5.85,35.9-13.92,10.76-9.67,16.19-23.28,16.19-40.46v-125.41c0-34.87,9.73-62.08,28.82-80.92,17.75-17.49,42.84-26.95,74.66-28.3v44.13c-16.25,1.14-29.39,6.16-39.11,14.85-8.17,7.35-13.5,16.81-15.88,28.25-.93,4.66-1.45,9.67-1.45,14.95v132.76c0,30.52-8.74,54.48-25.97,71.29Z"
         id="path2"
         inkscape:label="left bracket" />
      <path
         class="cls-2"
         d="m880.83,505.3v44.55c-14.85,1.19-26.9,5.9-35.91,13.97-10.76,9.67-16.19,23.28-16.19,40.41v125.77c0,34.61-9.73,61.77-28.82,80.61-17.75,17.49-42.84,26.95-74.66,28.25v-44.03c16.25-1.19,29.39-6.26,39.16-15.11,11.43-10.4,17.23-24.94,17.23-43.3v-128.77c0-6.98.41-13.66,1.24-19.92,2.95-22.3,11.33-40.56,24.83-54.17l5.54-5.59-5.59-5.43c-13.5-13.14-21.83-30.68-24.78-52.1-.83-6.05-1.24-12.47-1.24-19.19v-132.76c0-18.37-5.79-32.9-17.28-43.2-5.17-4.66-11.38-8.23-18.37-10.71-6.16-2.22-13.14-3.62-20.75-4.14v-44.13c31.82,1.35,56.91,10.81,74.66,28.3,11.64,11.49,19.87,26.08,24.37,43.46.57,2.22,1.14,4.5,1.6,6.83l.16.78c1.76,9.11,2.69,19.14,2.69,29.85v125.41c0,17.18,5.43,30.78,16.14,40.41l.05.05c9,8.07,21.06,12.73,35.91,13.92Z"
         id="path3"
         inkscape:label="right bracket" />
    </g>
    <g
       id="g11"
       inkscape:label="quill">
      <g
         id="g10"
         inkscape:label="feathers">
        <path
           class="cls-1"
           d="m473.94,240.7l-15.74-19.27-1-1.16c-.06-.05-.07-.11-.13-.16-7.33-8.97-10.87-13.36-12.32-19-1.65-5.96-1.53-14.45-1.49-31.01,0-.62.02-1.13.03-1.58l.02.28c.03-.91,0-2.54,0-5.14l.23-45.06c2.14-.81,4.05-2.16,5.73-3.72,3.07-3.09,5.06-7.45,5.05-12.13.04-4.75-1.92-9.1-4.95-12.17-3.16-3.17-7.39-5.07-12.14-5.05-4.75-.04-9.05,1.86-12.17,4.95-3.12,3.1-5.07,7.39-5.05,12.13-.05,4.69,1.86,9.05,4.95,12.17,1.6,1.56,3.53,2.92,5.7,3.8l-.18,51.5c-.05,17.69-.17,26.8,1.78,34.26,1.85,6.96,5.02,11.6,10.84,18.84,1.21,1.59,2.66,3.27,4.18,5.18l.95,1.22,15.79,19.2c14.61,17.95,14.59,21.74,14.18,50.26-.06,5.83-.11,12.44-.15,15.95l-.04,4.81c-12.97,2.25-25.25,5.35-37.06,9.25-.07-21.75-2.16-27.62-17.26-46.03l-15.73-19.21-.95-1.16c-7.45-9.02-11-13.46-12.51-19.15-.34-1.33-.64-2.83-.84-4.5-.72-5.7-.67-13.67-.6-26.51.04-2.77.03-3.62.03-3.62l.22-47.83c2.18-.92,4.1-2.22,5.72-3.77,3.17-3.16,5.07-7.39,5.05-12.13.04-4.75-1.86-9.05-4.95-12.17-3.1-3.12-7.33-5.02-12.14-5.05-4.69-.05-9,1.85-12.17,4.95-3.07,3.09-5.01,7.38-5.05,12.13-.04,4.75,1.91,8.99,4.95,12.17,1.66,1.61,3.59,2.91,5.75,3.8l-.23,45.06c.02,3.45-.02,5.65-.02,7.01.05-.06.05-.12.04-.23.04.45.02.9,0,1.3-.08,14.81-.07,23.4,1.25,30.18.13.84.31,1.67.56,2.49,2.2,8.4,6.42,13.52,15.01,23.96l.95,1.22,15.73,19.15c13.22,16.26,14.52,20.9,14.36,42.61-16.34,6.39-31.76,14.39-46.82,23.83-1.29-11.7-5.27-18.42-16.57-32.19-.06,0-.06-.05-.06-.05l-15.73-19.21-.95-1.22c-7.39-8.97-10.99-13.35-12.5-19.09-1.58-5.91-1.53-14.45-1.44-31.01.05-2.72.03-3.62.03-3.62l.22-47.83c2.18-.87,4.16-2.17,5.72-3.77,3.18-3.1,5.07-7.39,5.11-12.14-.01-4.75-1.86-9.05-5.01-12.17-3.04-3.13-7.33-5.07-12.08-5.11-4.74.01-9.05,1.91-12.17,5.01-3.12,3.1-5.07,7.39-5.11,12.14.01,4.75,1.91,9.05,5.01,12.17,1.61,1.61,3.53,2.92,5.7,3.8l-.17,45.05c0,3.28-.04,5.43-.03,6.84l.02.22c-.04.23-.01.51,0,.68v.17c-.02.23,0,.4,0,.57v.06c-.03.29-.01.45-.01.45-.08,16.11-.07,24.7,1.84,31.77,2.26,8.45,6.37,13.52,14.96,24.02l1,1.16,15.73,19.21c5.25,6.44,8.64,11.06,10.74,15.69,2.28,4.83,3.15,9.67,3.41,16.6.06.73.09,1.69.08,2.88.24,13.26,3.64,26.42,10.12,38,0,.06.07.11.07.16,18.71,33.36,43.55,64.5,72.12,94.3-29.9-13.75-56.81-34.14-81.29-59.82,26,92.18,67.33,170.21,136.07,222.7-10.24-83.09-14.68-182.9-15.44-274.61,0-.68,0-1.36,0-2.03.08-21.93.14-41.55.18-56.7.04-2.15.03-4.24.03-6.22.01-1.19.03-2.32.05-3.39-.04-1.07-.02-2.15-.05-3.16.09-11.37.13-18.15.13-18.72.46-32.59.48-36.94-17.09-58.42Zm-45.9-138.04c.07-5.04,4.13-9.12,9.16-9.1,5.03.02,9.06,4.13,9.04,9.16-.02,5.03-4.08,9.06-9.11,9.04-5.03-.02-9.11-4.07-9.1-9.1Zm-50.3,42.38c.02-5.03,4.13-9.12,9.16-9.1,4.97.02,9,4.14,8.99,9.17-.02,5.03-4.08,9.06-9.11,9.04-5.03-.02-9.06-4.08-9.04-9.11Zm-58.85,42.27c.02-5.03,4.08-9.06,9.11-9.04,4.97.02,9.06,4.08,9.04,9.11-.02,5.03-4.13,9.06-9.16,9.04-4.97-.02-9-4.14-8.98-9.11Z"
           id="path7"
           inkscape:label="left feather"
           style="fill:#00aaff;fill-opacity:1" />
        <path
           class="cls-6"
           d="m708.3,176.75c-3.1-3.12-7.39-5.07-12.14-5.05-4.75-.04-9.05,1.86-12.17,4.95-3.06,3.15-5.07,7.39-5.05,12.13-.04,4.75,1.91,9.05,4.95,12.17,1.61,1.61,3.59,2.91,5.7,3.86l-.16,47.82c.06,0,.02.85.03,3.61-.09,16.57-.09,25.1-1.73,31-1.6,5.68-5.18,10.05-12.65,19.01l-.97,1.16-10.6,12.73-5.32,6.39c-4.14,4.99-7.35,9.11-9.74,12.82-16.56-7.16-34.73-12.76-53.44-16.74.84-12.45,3.87-18.02,14.41-30.69l15.93-19.07.92-1.15c8.71-10.42,12.9-15.47,15.17-23.86,1.33-4.86,1.8-10.5,1.99-18.76.13-4.36.14-9.45.18-15.61.01-1.19-.03-1.64-.03-1.64l.21-49.8c2.13-.86,4.16-2.17,5.72-3.77,3.18-3.1,5.07-7.39,5.12-12.08-.02-4.75-1.86-9.11-5.01-12.17-3.04-3.18-7.39-5.07-12.08-5.11-4.75.01-9.11,1.86-12.17,5.01-3.12,3.1-5.07,7.39-5.11,12.14,0,4.69,1.91,8.99,5.01,12.17,1.6,1.56,3.58,2.85,5.7,3.8l-.22,47.83c.06,0,.07.84.03,3.61-.02,4.3-.04,8.03-.09,11.37-.09,9.44-.43,15.24-1.58,19.63-1.6,5.73-5.18,10.05-12.65,19.06l-.98,1.1-15.92,19.12c-12.75,15.29-16.36,21.87-17.31,36.36-12.4-2.21-24.96-3.66-37.28-4.35v-.51c.05-3.45-.07-10.11-.07-15.99-.14-28.41-.13-32.26,14.66-50.09l15.87-19.06,1.02-1.22c4.86-5.85,8.35-9.99,10.77-13.99,1.99-3.17,3.37-6.17,4.4-9.87,1.97-7.23,2.06-16,2.09-32.67.07-1.19.03-3.56.09-8.09l.17-45.05c2.13-.81,4.05-2.16,5.73-3.72,3.12-3.1,5.07-7.39,5.05-12.13.04-4.75-1.86-9.05-4.95-12.17-3.1-3.12-7.39-5.07-12.14-5.05-4.75-.04-9.05,1.86-12.17,4.95-3.12,3.1-5.01,7.38-5.05,12.13-.04,4.75,1.86,9.05,4.95,12.17,1.61,1.61,3.53,2.92,5.75,3.8l-.24,51.5c-.04,16.5-.04,25.04-1.67,31-1.04,3.71-2.91,6.86-6.21,11.16-1.73,2.24-3.88,4.74-6.44,7.85l-.97,1.21-15.87,19.06c-4.25,5.06-7.46,9.18-9.84,12.94l-.05.06c-7.88,12.1-7.83,20.51-7.72,45.31.02,3.45,0,7.29-.03,15.94,0,0,.01.17-.02.45.02.22,0,.62-.02,1.08-.91,24.15-2.9,50.09-3.78,77.24-3.57,108.3.4,228.72,6.06,267.4,49.54-43.33,85.5-110.47,109.43-198.38l-48.42,30.24c21.52-28.87,38.15-62.07,50.26-98.38,2.87-8.61,5.5-17.49,7.89-26.45v-.06c1.79-6.71,3.41-13.46,4.85-20.37.06,0,.05-.06.05-.06,2.1-3.85,5.19-7.91,9.65-13.21l15.86-19.12,1.04-1.11c8.65-10.41,12.9-15.47,15.17-23.86,2.01-7.46,2.02-16.56,2.11-34.37l.02-.45c-.02-.85.01-1.19.01-1.19l.16-49.8c2.18-.87,4.11-2.16,5.78-3.78,3.07-3.09,5.07-7.39,5.05-12.13.04-4.75-1.91-9.05-4.95-12.17Zm-79.79-30.68c.02-5.03,4.07-9.11,9.1-9.09,5.03.02,9.12,4.13,9.1,9.16-.02,5.03-4.13,9.06-9.16,9.04-5.03-.02-9.06-4.08-9.04-9.11Zm-49.98-42.81c.02-5.03,4.07-9.11,9.1-9.09,5.03.02,9.12,4.13,9.1,9.16-.02,5.03-4.13,9.12-9.16,9.1-5.04-.07-9.06-4.13-9.04-9.16Zm117.54,94.66c-5.03-.02-9.11-4.07-9.1-9.1.02-5.03,4.13-9.06,9.17-9.04,5.03.02,9.11,4.07,9.09,9.1-.02,5.03-4.13,9.06-9.16,9.04Z"
           id="path8"
           inkscape:label="right feather"
           style="fill:#0088ff;fill-opacity:1" />
        <path
           class="cls-5"
           d="m511.75,113.96c-16.85-.07-30.58,13.61-30.66,30.4-.07,16.85,13.55,30.59,30.4,30.66,16.79.07,30.53-13.6,30.6-30.39.07-16.85-13.55-30.59-30.34-30.66Zm-.22,50.37c-10.96-.01-19.82-8.97-19.81-19.93.07-10.91,9.02-19.82,19.94-19.75,10.96.01,19.82,8.97,19.75,19.94-.07,10.91-8.97,19.82-19.88,19.75Z"
           id="path10"
           inkscape:label="node" />
      </g>
      <g
         id="g5"
         inkscape:label="pen">
        <path
           class="cls-2"
           d="m537.89,778.41c-.1-8.88-6.62-16.18-15.1-17.53-1-.18-2.02-.25-3.07-.24-1.04.01-2.06.11-3.06.3-8.45,1.53-14.8,8.98-14.7,17.86.1,8.9,6.62,16.2,15.1,17.55l.91,82.34c-10.29-38.78-33.42-73.89-65.9-106.38,21.4-13.54,33-36.57,37.09-66.94,20.35,6.03,40.31,5.74,59.92-.58,4.75,30.23,16.89,52.98,38.54,66.02-31.75,33.2-54.09,68.82-63.52,107.82l-.91-82.34c8.45-1.53,14.8-8.98,14.7-17.88Z"
           id="path4"
           inkscape:label="tip" />
        <path
           class="cls-2"
           d="m563.02,690.26c-28.59,13.53-57.95,14.15-88.14.98l-.23-20.5c28.52,13.22,57.87,13.38,88.14-.98l.23,20.5Z"
           id="path5"
           inkscape:label="base" />
      </g>
    </g>
  </g>
</svg>
