<?xml version="1.0" encoding="UTF-8" standalone="no"?>
<svg
   viewBox="0 0 3072 1024"
   version="1.1"
   id="svg13"
   sodipodi:docname="logo.svg"
   width="3072"
   height="1024"
   inkscape:version="1.4.2 (2aeb623e1d, 2025-05-12)"
   xmlns:inkscape="http://www.inkscape.org/namespaces/inkscape"
   xmlns:sodipodi="http://sodipodi.sourceforge.net/DTD/sodipodi-0.dtd"
   xmlns:xlink="http://www.w3.org/1999/xlink"
   xmlns="http://www.w3.org/2000/svg"
   xmlns:svg="http://www.w3.org/2000/svg">
  <sodipodi:namedview
     id="namedview13"
     pagecolor="#ffffff"
     bordercolor="#000000"
     borderopacity="0.25"
     inkscape:showpageshadow="2"
     inkscape:pageopacity="0.0"
     inkscape:pagecheckerboard="0"
     inkscape:deskcolor="#d1d1d1"
     inkscape:zoom="0.30590655"
     inkscape:cx="1523.341"
     inkscape:cy="465.82853"
     inkscape:window-width="1687"
     inkscape:window-height="1371"
     inkscape:window-x="66"
     inkscape:window-y="32"
     inkscape:window-maximized="0"
     inkscape:current-layer="svg13" />
  <defs
     id="defs2">
    <linearGradient
       id="swatch52"
       inkscape:swatch="solid">
      <stop
         style="stop-color:#727272;stop-opacity:1;"
         offset="0"
         id="stop52" />
    </linearGradient>
    <style
       id="style1">
      .cls-1 {
        fill: url(#linear-gradient-2);
      }

      .cls-2 {
        fill: #2e3b47;
      }

      .cls-3 {
        isolation: isolate;
      }

      .cls-4 {
        fill: url(#linear-gradient-4);
        mix-blend-mode: multiply;
        opacity: .6;
      }

      .cls-5 {
        fill: url(#linear-gradient-5);
      }

      .cls-6 {
        fill: url(#linear-gradient-3);
      }

      .cls-7 {
        fill: url(#linear-gradient);
      }
    </style>
    <linearGradient
       id="linear-gradient"
       x1="515.59998"
       y1="168.02"
       x2="515.12"
       y2="173.08"
       gradientTransform="rotate(-4.94,2215.2414,527.6667)"
       gradientUnits="userSpaceOnUse">
      <stop
         offset="0"
         stop-color="#00bfff"
         id="stop1" />
      <stop
         offset="1"
         stop-color="#00a4ff"
         id="stop2" />
    </linearGradient>
    <linearGradient
       id="linear-gradient-2"
       x1="455.85001"
       y1="-68.370003"
       x2="401.64001"
       y2="506.95999"
       xlink:href="#linear-gradient" />
    <linearGradient
       id="linear-gradient-3"
       x1="665.87"
       y1="-49.130001"
       x2="611.87"
       y2="523.98999"
       xlink:href="#linear-gradient" />
    <linearGradient
       id="linear-gradient-4"
       x1="665.87"
       y1="-49.130001"
       x2="611.87"
       y2="523.98999"
       xlink:href="#linear-gradient" />
    <linearGradient
       id="linear-gradient-5"
       x1="554.39001"
       y1="-37.59"
       x2="495.32999"
       y2="589.13"
       xlink:href="#linear-gradient" />
  </defs>
  <g
     class="cls-3"
     id="g13"
     style="display:inline;stroke:#727272;stroke-opacity:1"
     inkscape:label="logo">
    <g
       id="g29"
       style="stroke:none;stroke-opacity:1;stroke-width:1.9;stroke-dasharray:none;stroke-linejoin:round"
       inkscape:label="text">
      <path
         style="font-weight:600;font-size:418.667px;font-family:'FONTSPRING DEMO - Artegra Sans Alt SemiBold';-inkscape-font-specification:'FONTSPRING DEMO - Artegra Sans Alt SemiBold,  Semi-Bold';fill:#2e3b47;stroke:none;stroke-opacity:1;stroke-width:1.9;stroke-dasharray:none;stroke-linejoin:round"
         d="m 2920.9946,681.89618 v -309.9117 h -51.3112 v 309.9117 z"
         id="path29"
         inkscape:label="l two" />
      <path
         style="font-weight:600;font-size:418.667px;font-family:'FONTSPRING DEMO - Artegra Sans Alt SemiBold';-inkscape-font-specification:'FONTSPRING DEMO - Artegra Sans Alt SemiBold,  Semi-Bold';fill:#2e3b47;stroke:none;stroke-opacity:1;stroke-width:1.9;stroke-dasharray:none;stroke-linejoin:round"
         d="m 2816.5323,681.89618 v -309.9117 h -51.3112 v 309.9117 z"
         id="path28"
         inkscape:label="l one" />
      <path
         style="font-weight:600;font-size:418.667px;font-family:'FONTSPRING DEMO - Artegra Sans Alt SemiBold';-inkscape-font-specification:'FONTSPRING DEMO - Artegra Sans Alt SemiBold,  Semi-Bold';fill:#00aaff;fill-opacity:1;stroke:none;stroke-opacity:1;stroke-width:1.9;stroke-dasharray:none;stroke-linejoin:round"
         d="m 2651.9684,410.62123 c 0,16.55861 13.4922,30.0508 30.0508,30.0508 16.5586,0 30.0508,-13.49219 30.0508,-30.0508 0,-16.55861 -13.4922,-30.05081 -30.0508,-30.05081 -16.5586,0 -30.0508,13.4922 -30.0508,30.05081 z"
         id="path27"
         inkscape:label="i dot" />
      <path
         style="font-weight:600;font-size:418.667px;font-family:'FONTSPRING DEMO - Artegra Sans Alt SemiBold';-inkscape-font-specification:'FONTSPRING DEMO - Artegra Sans Alt SemiBold,  Semi-Bold';fill:#2e3b47;stroke:none;stroke-opacity:1;stroke-width:1.9;stroke-dasharray:none;stroke-linejoin:round"
         d="m 2656.4658,681.89618 h 51.3113 V 472.97154 h -51.3113 z"
         id="path26"
         inkscape:label="i" />
      <path
         style="font-weight:600;font-size:418.667px;font-family:'FONTSPRING DEMO - Artegra Sans Alt SemiBold';-inkscape-font-specification:'FONTSPRING DEMO - Artegra Sans Alt SemiBold,  Semi-Bold';fill:#2e3b47;stroke:none;stroke-opacity:1;stroke-width:1.9;stroke-dasharray:none;stroke-linejoin:round"
         d="m 2488.631,685.98472 c 24.3269,0 50.4935,-11.44792 58.8751,-35.97919 v 31.89065 h 51.3112 V 472.97154 h -51.3112 v 111.8217 c 0,33.11721 -14.7188,58.46619 -50.698,58.46619 -35.7748,0 -50.4935,-25.5534 -50.4935,-58.46619 v -111.8217 h -51.3113 v 111.8217 c 0,60.30604 30.4597,101.19148 93.6277,101.19148 z"
         id="path25"
         inkscape:label="u" />
      <path
         style="font-weight:600;font-size:418.667px;font-family:'FONTSPRING DEMO - Artegra Sans Alt SemiBold';-inkscape-font-specification:'FONTSPRING DEMO - Artegra Sans Alt SemiBold,  Semi-Bold';fill:#2e3b47;stroke:none;stroke-opacity:1;stroke-width:1.9;stroke-dasharray:none;stroke-linejoin:round"
         d="m 2190.1672,688.029 c 21.4649,0 42.9298,-3.06641 63.1681,-10.01694 l 19.2161,22.28257 h 60.5105 l -40.0678,-43.95186 c 37.4102,-29.43752 52.9467,-74.61594 52.9467,-121.02092 0,-94.64982 -62.1459,-152.70715 -155.7736,-152.70715 -93.6276,0 -155.7735,58.05733 -155.7735,152.70715 0,95.05866 61.9414,152.70715 155.7735,152.70715 z m 0,-259.21375 c 65.8256,0 99.7605,43.13415 99.7605,106.5066 0,30.45966 -8.1771,62.14588 -31.4818,83.20188 l -23.1002,-25.34897 h -54.5821 l 38.8412,45.38284 c -9.6081,2.45313 -19.4206,3.27084 -29.4376,3.27084 -65.8255,0 -99.7605,-43.13415 -99.7605,-106.50659 0,-63.37245 33.935,-106.5066 99.7605,-106.5066 z"
         id="path24"
         inkscape:label="Q" />
      <path
         style="font-weight:600;font-size:418.667px;font-family:'FONTSPRING DEMO - Artegra Sans Alt SemiBold';-inkscape-font-specification:'FONTSPRING DEMO - Artegra Sans Alt SemiBold,  Semi-Bold';fill:#2e3b47;stroke:none;stroke-opacity:1;stroke-width:1.9;stroke-dasharray:none;stroke-linejoin:round"
         d="m 1862.6748,685.98472 c 27.3932,0 58.6706,-13.69662 71.3451,-39.0456 v 34.95706 h 51.3112 V 472.97154 h -51.3112 v 34.95706 c -12.6745,-25.34898 -43.9519,-39.04561 -71.3451,-39.04561 -64.1902,0 -102.6225,46.40499 -102.6225,108.55087 0,62.14588 38.4323,108.55086 102.6225,108.55086 z m 10.6302,-174.17201 c 40.0678,0 60.7149,27.59768 60.7149,65.62115 0,38.02347 -20.6471,65.62114 -60.7149,65.62114 -40.0677,0 -60.7149,-27.59767 -60.7149,-65.62114 0,-38.02347 20.6472,-65.62115 60.7149,-65.62115 z"
         id="path23"
         inkscape:label="a" />
      <path
         style="font-weight:600;font-size:418.667px;font-family:'FONTSPRING DEMO - Artegra Sans Alt SemiBold';-inkscape-font-specification:'FONTSPRING DEMO - Artegra Sans Alt SemiBold,  Semi-Bold';fill:#2e3b47;stroke:none;stroke-opacity:1;stroke-width:1.9;stroke-dasharray:none;stroke-linejoin:round"
         d="m 1566.2553,515.69683 h 40.2721 v 74.00266 c 0,53.96879 9.4037,96.28523 73.185,96.28523 16.3542,0 32.7084,-2.45312 47.6315,-9.19922 l -11.4479,-39.45446 c -8.7903,4.08855 -18.3984,5.92839 -28.0065,5.92839 -29.4375,0 -30.0508,-27.8021 -30.0508,-50.08467 v -77.47793 h 59.6927 v -42.72529 h -59.6927 v -61.12375 h -51.3113 v 61.12375 h -40.2721 z"
         id="path22"
         inkscape:label="t" />
      <path
         style="font-weight:600;font-size:418.667px;font-family:'FONTSPRING DEMO - Artegra Sans Alt SemiBold';-inkscape-font-specification:'FONTSPRING DEMO - Artegra Sans Alt SemiBold,  Semi-Bold';fill:#2e3b47;stroke:none;stroke-opacity:1;stroke-width:1.9;stroke-dasharray:none;stroke-linejoin:round"
         d="m 1318.8983,577.43386 c 0,67.25656 43.7475,108.55086 110.3907,108.55086 35.7748,0 69.9142,-7.76823 96.0808,-33.73049 l -31.0729,-30.86851 c -18.6029,15.74089 -41.0899,21.87371 -65.0079,21.87371 -31.2773,0 -50.0846,-16.76303 -54.9909,-45.7917 h 165.3817 c 0.2044,-3.67969 0.2044,-7.15496 0.2044,-10.83465 0,-70.93625 -37.0014,-117.75009 -110.5952,-117.75009 -66.4388,0 -110.3907,41.49873 -110.3907,108.55087 z m 110.3907,-65.82557 c 30.6641,0 50.9024,16.5586 54.991,45.58727 h -109.9819 c 4.0886,-29.02867 24.3269,-45.58727 54.9909,-45.58727 z"
         id="path21"
         inkscape:label="e" />
      <path
         style="font-weight:600;font-size:418.667px;font-family:'FONTSPRING DEMO - Artegra Sans Alt SemiBold';-inkscape-font-specification:'FONTSPRING DEMO - Artegra Sans Alt SemiBold,  Semi-Bold';fill:#2e3b47;stroke:none;stroke-opacity:1;stroke-width:1.9;stroke-dasharray:none;stroke-linejoin:round"
         d="m 946.02303,681.89618 h 55.19537 V 474.60696 l 85.4506,207.28922 h 42.5208 l 85.4506,-207.28922 v 207.28922 h 55.1954 V 388.74751 h -76.0469 L 1107.9294,596.03674 1022.07,388.74751 h -76.04697 z"
         id="text13"
         inkscape:label="M" />
    </g>
  </g>
  <g
     id="g12"
     inkscape:label="icon"
     transform="translate(-42.320273,14.007868)">
    <g
       id="g3"
       inkscape:label="brackets">
      <path
         class="cls-2"
         d="m 216.32,522.53 -5.59,5.43 5.54,5.59 c 17.28,17.38 26.02,42.32 26.02,74.09 v 128.77 c 0,5.23 0.52,10.24 1.45,14.9 1.81,8.64 5.28,16.3 10.4,22.61 1.6,2.02 3.42,3.98 5.43,5.79 3.98,3.62 8.64,6.62 13.76,9 7.3,3.36 15.83,5.38 25.4,6.1 v 44.03 C 266.91,837.55 241.82,828.08 224.07,810.59 204.98,791.76 195.25,764.6 195.25,729.98 V 604.21 c 0,-17.12 -5.43,-30.73 -16.19,-40.41 -9,-8.07 -21.06,-12.78 -35.9,-13.97 v -44.55 c 14.85,-1.19 26.9,-5.85 35.9,-13.92 10.76,-9.67 16.19,-23.28 16.19,-40.46 V 325.49 c 0,-34.87 9.73,-62.08 28.82,-80.92 17.75,-17.49 42.84,-26.95 74.66,-28.3 v 44.13 c -16.25,1.14 -29.39,6.16 -39.11,14.85 -8.17,7.35 -13.5,16.81 -15.88,28.25 -0.93,4.66 -1.45,9.67 -1.45,14.95 v 132.76 c 0,30.52 -8.74,54.48 -25.97,71.29 z"
         id="path2"
         inkscape:label="left bracket"
         style="fill:#2e3b47" />
      <path
         class="cls-2"
         d="m 880.83,505.3 v 44.55 c -14.85,1.19 -26.9,5.9 -35.91,13.97 -10.76,9.67 -16.19,23.28 -16.19,40.41 V 730 c 0,34.61 -9.73,61.77 -28.82,80.61 -17.75,17.49 -42.84,26.95 -74.66,28.25 v -44.03 c 16.25,-1.19 29.39,-6.26 39.16,-15.11 11.43,-10.4 17.23,-24.94 17.23,-43.3 V 607.65 c 0,-6.98 0.41,-13.66 1.24,-19.92 2.95,-22.3 11.33,-40.56 24.83,-54.17 l 5.54,-5.59 -5.59,-5.43 c -13.5,-13.14 -21.83,-30.68 -24.78,-52.1 -0.83,-6.05 -1.24,-12.47 -1.24,-19.19 V 318.49 c 0,-18.37 -5.79,-32.9 -17.28,-43.2 -5.17,-4.66 -11.38,-8.23 -18.37,-10.71 -6.16,-2.22 -13.14,-3.62 -20.75,-4.14 v -44.13 c 31.82,1.35 56.91,10.81 74.66,28.3 11.64,11.49 19.87,26.08 24.37,43.46 0.57,2.22 1.14,4.5 1.6,6.83 l 0.16,0.78 c 1.76,9.11 2.69,19.14 2.69,29.85 v 125.41 c 0,17.18 5.43,30.78 16.14,40.41 l 0.05,0.05 c 9,8.07 21.06,12.73 35.91,13.92 z"
         id="path3"
         inkscape:label="right bracket"
         style="fill:#2e3b47" />
    </g>
    <g
       id="g11"
       inkscape:label="quill">
      <g
         id="g10"
         inkscape:label="feathers">
        <path
           class="cls-1"
           d="m 473.94,240.7 -15.74,-19.27 -1,-1.16 c -0.06,-0.05 -0.07,-0.11 -0.13,-0.16 -7.33,-8.97 -10.87,-13.36 -12.32,-19 -1.65,-5.96 -1.53,-14.45 -1.49,-31.01 0,-0.62 0.02,-1.13 0.03,-1.58 l 0.02,0.28 c 0.03,-0.91 0,-2.54 0,-5.14 l 0.23,-45.06 c 2.14,-0.81 4.05,-2.16 5.73,-3.72 3.07,-3.09 5.06,-7.45 5.05,-12.13 0.04,-4.75 -1.92,-9.1 -4.95,-12.17 -3.16,-3.17 -7.39,-5.07 -12.14,-5.05 -4.75,-0.04 -9.05,1.86 -12.17,4.95 -3.12,3.1 -5.07,7.39 -5.05,12.13 -0.05,4.69 1.86,9.05 4.95,12.17 1.6,1.56 3.53,2.92 5.7,3.8 l -0.18,51.5 c -0.05,17.69 -0.17,26.8 1.78,34.26 1.85,6.96 5.02,11.6 10.84,18.84 1.21,1.59 2.66,3.27 4.18,5.18 l 0.95,1.22 15.79,19.2 c 14.61,17.95 14.59,21.74 14.18,50.26 -0.06,5.83 -0.11,12.44 -0.15,15.95 l -0.04,4.81 c -12.97,2.25 -25.25,5.35 -37.06,9.25 -0.07,-21.75 -2.16,-27.62 -17.26,-46.03 l -15.73,-19.21 -0.95,-1.16 c -7.45,-9.02 -11,-13.46 -12.51,-19.15 -0.34,-1.33 -0.64,-2.83 -0.84,-4.5 -0.72,-5.7 -0.67,-13.67 -0.6,-26.51 0.04,-2.77 0.03,-3.62 0.03,-3.62 l 0.22,-47.83 c 2.18,-0.92 4.1,-2.22 5.72,-3.77 3.17,-3.16 5.07,-7.39 5.05,-12.13 0.04,-4.75 -1.86,-9.05 -4.95,-12.17 -3.1,-3.12 -7.33,-5.02 -12.14,-5.05 -4.69,-0.05 -9,1.85 -12.17,4.95 -3.07,3.09 -5.01,7.38 -5.05,12.13 -0.04,4.75 1.91,8.99 4.95,12.17 1.66,1.61 3.59,2.91 5.75,3.8 l -0.23,45.06 c 0.02,3.45 -0.02,5.65 -0.02,7.01 0.05,-0.06 0.05,-0.12 0.04,-0.23 0.04,0.45 0.02,0.9 0,1.3 -0.08,14.81 -0.07,23.4 1.25,30.18 0.13,0.84 0.31,1.67 0.56,2.49 2.2,8.4 6.42,13.52 15.01,23.96 l 0.95,1.22 15.73,19.15 c 13.22,16.26 14.52,20.9 14.36,42.61 -16.34,6.39 -31.76,14.39 -46.82,23.83 -1.29,-11.7 -5.27,-18.42 -16.57,-32.19 -0.06,0 -0.06,-0.05 -0.06,-0.05 l -15.73,-19.21 -0.95,-1.22 c -7.39,-8.97 -10.99,-13.35 -12.5,-19.09 -1.58,-5.91 -1.53,-14.45 -1.44,-31.01 0.05,-2.72 0.03,-3.62 0.03,-3.62 l 0.22,-47.83 c 2.18,-0.87 4.16,-2.17 5.72,-3.77 3.18,-3.1 5.07,-7.39 5.11,-12.14 -0.01,-4.75 -1.86,-9.05 -5.01,-12.17 -3.04,-3.13 -7.33,-5.07 -12.08,-5.11 -4.74,0.01 -9.05,1.91 -12.17,5.01 -3.12,3.1 -5.07,7.39 -5.11,12.14 0.01,4.75 1.91,9.05 5.01,12.17 1.61,1.61 3.53,2.92 5.7,3.8 l -0.17,45.05 c 0,3.28 -0.04,5.43 -0.03,6.84 l 0.02,0.22 c -0.04,0.23 -0.01,0.51 0,0.68 v 0.17 c -0.02,0.23 0,0.4 0,0.57 v 0.06 c -0.03,0.29 -0.01,0.45 -0.01,0.45 -0.08,16.11 -0.07,24.7 1.84,31.77 2.26,8.45 6.37,13.52 14.96,24.02 l 1,1.16 15.73,19.21 c 5.25,6.44 8.64,11.06 10.74,15.69 2.28,4.83 3.15,9.67 3.41,16.6 0.06,0.73 0.09,1.69 0.08,2.88 0.24,13.26 3.64,26.42 10.12,38 0,0.06 0.07,0.11 0.07,0.16 18.71,33.36 43.55,64.5 72.12,94.3 -29.9,-13.75 -56.81,-34.14 -81.29,-59.82 26,92.18 67.33,170.21 136.07,222.7 -10.24,-83.09 -14.68,-182.9 -15.44,-274.61 0,-0.68 0,-1.36 0,-2.03 0.08,-21.93 0.14,-41.55 0.18,-56.7 0.04,-2.15 0.03,-4.24 0.03,-6.22 0.01,-1.19 0.03,-2.32 0.05,-3.39 -0.04,-1.07 -0.02,-2.15 -0.05,-3.16 0.09,-11.37 0.13,-18.15 0.13,-18.72 0.46,-32.59 0.48,-36.94 -17.09,-58.42 z m -45.9,-138.04 c 0.07,-5.04 4.13,-9.12 9.16,-9.1 5.03,0.02 9.06,4.13 9.04,9.16 -0.02,5.03 -4.08,9.06 -9.11,9.04 -5.03,-0.02 -9.11,-4.07 -9.1,-9.1 z m -50.3,42.38 c 0.02,-5.03 4.13,-9.12 9.16,-9.1 4.97,0.02 9,4.14 8.99,9.17 -0.02,5.03 -4.08,9.06 -9.11,9.04 -5.03,-0.02 -9.06,-4.08 -9.04,-9.11 z m -58.85,42.27 c 0.02,-5.03 4.08,-9.06 9.11,-9.04 4.97,0.02 9.06,4.08 9.04,9.11 -0.02,5.03 -4.13,9.06 -9.16,9.04 -4.97,-0.02 -9,-4.14 -8.98,-9.11 z"
           id="path7"
           inkscape:label="left feather"
           style="fill:#00aaff;fill-opacity:1" />
        <path
           class="cls-6"
           d="m 708.3,176.75 c -3.1,-3.12 -7.39,-5.07 -12.14,-5.05 -4.75,-0.04 -9.05,1.86 -12.17,4.95 -3.06,3.15 -5.07,7.39 -5.05,12.13 -0.04,4.75 1.91,9.05 4.95,12.17 1.61,1.61 3.59,2.91 5.7,3.86 l -0.16,47.82 c 0.06,0 0.02,0.85 0.03,3.61 -0.09,16.57 -0.09,25.1 -1.73,31 -1.6,5.68 -5.18,10.05 -12.65,19.01 l -0.97,1.16 -10.6,12.73 -5.32,6.39 c -4.14,4.99 -7.35,9.11 -9.74,12.82 -16.56,-7.16 -34.73,-12.76 -53.44,-16.74 0.84,-12.45 3.87,-18.02 14.41,-30.69 l 15.93,-19.07 0.92,-1.15 c 8.71,-10.42 12.9,-15.47 15.17,-23.86 1.33,-4.86 1.8,-10.5 1.99,-18.76 0.13,-4.36 0.14,-9.45 0.18,-15.61 0.01,-1.19 -0.03,-1.64 -0.03,-1.64 l 0.21,-49.8 c 2.13,-0.86 4.16,-2.17 5.72,-3.77 3.18,-3.1 5.07,-7.39 5.12,-12.08 -0.02,-4.75 -1.86,-9.11 -5.01,-12.17 -3.04,-3.18 -7.39,-5.07 -12.08,-5.11 -4.75,0.01 -9.11,1.86 -12.17,5.01 -3.12,3.1 -5.07,7.39 -5.11,12.14 0,4.69 1.91,8.99 5.01,12.17 1.6,1.56 3.58,2.85 5.7,3.8 l -0.22,47.83 c 0.06,0 0.07,0.84 0.03,3.61 -0.02,4.3 -0.04,8.03 -0.09,11.37 -0.09,9.44 -0.43,15.24 -1.58,19.63 -1.6,5.73 -5.18,10.05 -12.65,19.06 l -0.98,1.1 -15.92,19.12 c -12.75,15.29 -16.36,21.87 -17.31,36.36 -12.4,-2.21 -24.96,-3.66 -37.28,-4.35 v -0.51 c 0.05,-3.45 -0.07,-10.11 -0.07,-15.99 -0.14,-28.41 -0.13,-32.26 14.66,-50.09 l 15.87,-19.06 1.02,-1.22 c 4.86,-5.85 8.35,-9.99 10.77,-13.99 1.99,-3.17 3.37,-6.17 4.4,-9.87 1.97,-7.23 2.06,-16 2.09,-32.67 0.07,-1.19 0.03,-3.56 0.09,-8.09 l 0.17,-45.05 c 2.13,-0.81 4.05,-2.16 5.73,-3.72 3.12,-3.1 5.07,-7.39 5.05,-12.13 0.04,-4.75 -1.86,-9.05 -4.95,-12.17 -3.1,-3.12 -7.39,-5.07 -12.14,-5.05 -4.75,-0.04 -9.05,1.86 -12.17,4.95 -3.12,3.1 -5.01,7.38 -5.05,12.13 -0.04,4.75 1.86,9.05 4.95,12.17 1.61,1.61 3.53,2.92 5.75,3.8 l -0.24,51.5 c -0.04,16.5 -0.04,25.04 -1.67,31 -1.04,3.71 -2.91,6.86 -6.21,11.16 -1.73,2.24 -3.88,4.74 -6.44,7.85 l -0.97,1.21 -15.87,19.06 c -4.25,5.06 -7.46,9.18 -9.84,12.94 l -0.05,0.06 c -7.88,12.1 -7.83,20.51 -7.72,45.31 0.02,3.45 0,7.29 -0.03,15.94 0,0 0.01,0.17 -0.02,0.45 0.02,0.22 0,0.62 -0.02,1.08 -0.91,24.15 -2.9,50.09 -3.78,77.24 -3.57,108.3 0.4,228.72 6.06,267.4 49.54,-43.33 85.5,-110.47 109.43,-198.38 l -48.42,30.24 c 21.52,-28.87 38.15,-62.07 50.26,-98.38 2.87,-8.61 5.5,-17.49 7.89,-26.45 v -0.06 c 1.79,-6.71 3.41,-13.46 4.85,-20.37 0.06,0 0.05,-0.06 0.05,-0.06 2.1,-3.85 5.19,-7.91 9.65,-13.21 l 15.86,-19.12 1.04,-1.11 c 8.65,-10.41 12.9,-15.47 15.17,-23.86 2.01,-7.46 2.02,-16.56 2.11,-34.37 l 0.02,-0.45 c -0.02,-0.85 0.01,-1.19 0.01,-1.19 l 0.16,-49.8 c 2.18,-0.87 4.11,-2.16 5.78,-3.78 3.07,-3.09 5.07,-7.39 5.05,-12.13 0.04,-4.75 -1.91,-9.05 -4.95,-12.17 z m -79.79,-30.68 c 0.02,-5.03 4.07,-9.11 9.1,-9.09 5.03,0.02 9.12,4.13 9.1,9.16 -0.02,5.03 -4.13,9.06 -9.16,9.04 -5.03,-0.02 -9.06,-4.08 -9.04,-9.11 z m -49.98,-42.81 c 0.02,-5.03 4.07,-9.11 9.1,-9.09 5.03,0.02 9.12,4.13 9.1,9.16 -0.02,5.03 -4.13,9.12 -9.16,9.1 -5.04,-0.07 -9.06,-4.13 -9.04,-9.16 z m 117.54,94.66 c -5.03,-0.02 -9.11,-4.07 -9.1,-9.1 0.02,-5.03 4.13,-9.06 9.17,-9.04 5.03,0.02 9.11,4.07 9.09,9.1 -0.02,5.03 -4.13,9.06 -9.16,9.04 z"
           id="path8"
           inkscape:label="right feather"
           style="fill:#0088ff;fill-opacity:1" />
        <path
           class="cls-5"
           d="m 511.75,113.96 c -16.85,-0.07 -30.58,13.61 -30.66,30.4 -0.07,16.85 13.55,30.59 30.4,30.66 16.79,0.07 30.53,-13.6 30.6,-30.39 0.07,-16.85 -13.55,-30.59 -30.34,-30.66 z m -0.22,50.37 c -10.96,-0.01 -19.82,-8.97 -19.81,-19.93 0.07,-10.91 9.02,-19.82 19.94,-19.75 10.96,0.01 19.82,8.97 19.75,19.94 -0.07,10.91 -8.97,19.82 -19.88,19.75 z"
           id="path10"
           inkscape:label="node"
           style="fill:url(#linear-gradient-5)" />
      </g>
      <g
         id="g5"
         inkscape:label="pen">
        <path
           class="cls-2"
           d="m 537.89,778.41 c -0.1,-8.88 -6.62,-16.18 -15.1,-17.53 -1,-0.18 -2.02,-0.25 -3.07,-0.24 -1.04,0.01 -2.06,0.11 -3.06,0.3 -8.45,1.53 -14.8,8.98 -14.7,17.86 0.1,8.9 6.62,16.2 15.1,17.55 l 0.91,82.34 c -10.29,-38.78 -33.42,-73.89 -65.9,-106.38 21.4,-13.54 33,-36.57 37.09,-66.94 20.35,6.03 40.31,5.74 59.92,-0.58 4.75,30.23 16.89,52.98 38.54,66.02 -31.75,33.2 -54.09,68.82 -63.52,107.82 l -0.91,-82.34 c 8.45,-1.53 14.8,-8.98 14.7,-17.88 z"
           id="path4"
           inkscape:label="tip"
           style="fill:#2e3b47" />
        <path
           class="cls-2"
           d="m 563.02,690.26 c -28.59,13.53 -57.95,14.15 -88.14,0.98 l -0.23,-20.5 c 28.52,13.22 57.87,13.38 88.14,-0.98 z"
           id="path5"
           inkscape:label="base"
           style="fill:#2e3b47" />
      </g>
    </g>
  </g>
</svg>
